# xmcd
#
# Track frame offsets: 
#        150
#        55695
#        92895
#        136575
#        166950
#        205596
#        235774
#        271988
#        303015
#
# Disc length: 4465 seconds
#
# Revision: 3
# Processed by: cddbd v1.5.2PL0 Copyright (c) Steve Scherf et al.
# Submitted via: ExactAudioCopy v0.99pb5
#
DISCID=67116f09
DTITLE=Various Artist - Club Jazz Vol 3 - CD 02
DYEAR=2001
DGENRE=Jazz
TTITLE0=Davis, Miles and The Lighthouse All-Stars - Infinity promenade
TTITLE1=Rumsey's, Howard Lighthouse All-Stars - Viva Zapata!
TTITLE2=Jackson, Milt Quintet - Gemini
TTITLE3=Garland, Red - There will never be another you
TTITLE4=Evans, Bill Trio - Alice in wonderland (take 2)
TTITLE5=Monk, Thelonious Quartet Plus Two - Epistrophy
TTITLE6=Wallington, George Quintet, The - Bohemia after dark
TTITLE7=Smith, Jimmy and Eddie Harris - 8 counts for Rita
TTITLE8=Evans, Bill Trio - Someday my prince will come
EXTD=
EXTT0=
EXTT1=
EXTT2=
EXTT3=
EXTT4=
EXTT5=
EXTT6=
EXTT7=
EXTT8=
PLAYORDER=
